<svg xmlns="http://www.w3.org/2000/svg" width="80" height="32" viewBox="0 0 80 32" fill="none">
  <g clip-path="url(#clip0_4_19504)">
    <path d="M65.4184 4.8833H62.1294V8.17225H65.4184V4.8833Z" fill="white"/>
    <path fill-rule="evenodd" clip-rule="evenodd" d="M52.6153 13.3277H49.7271V18.6722C49.7271 19.1176 49.8377 19.4436 50.0604 19.6484C50.2832 19.8547 50.6091 19.9743 51.0367 20.0087C51.4642 20.0251 51.9964 20.0176 52.6303 19.9832V22.9896C50.3864 23.2468 48.7852 23.0404 47.8255 22.3737C46.8836 21.689 46.4128 20.4556 46.4128 18.6736V13.3292H44.1778V10.1419H46.4128V7.54667L49.7271 6.54504V10.1434H54.8503V7.54816L58.1646 6.54653V10.1449H61.0679V13.3322H58.1646V18.6767C58.1646 19.1222 58.2752 19.448 58.498 19.6528C58.7208 19.8592 59.0467 19.9788 59.4742 20.0132C59.9018 20.0296 60.434 20.0221 61.0664 19.9877V22.9941C58.8224 23.2512 57.2213 23.0449 56.2616 22.3782C55.3197 21.6935 54.8488 20.4601 54.8488 18.6781V13.3336H52.6139L52.6153 13.3277Z" fill="white"/>
    <path d="M65.4351 10.1388H62.1208V22.988H65.4351V10.1388Z" fill="white"/>
    <path fill-rule="evenodd" clip-rule="evenodd" d="M73.2435 9.80603C69.5121 9.80603 66.4863 12.8319 66.4863 16.5647C66.4863 20.2977 69.5121 23.3235 73.2435 23.3235C76.975 23.3235 80.0011 20.2977 80.0011 16.5647C80.0011 12.8319 76.9764 9.80603 73.2435 9.80603ZM73.2315 20.1377C71.2522 20.1377 69.6467 18.5321 69.6467 16.5528C69.6467 14.5735 71.2522 12.9679 73.2315 12.9679C75.2109 12.9679 76.815 14.5719 76.815 16.5528C76.815 18.5336 75.2109 20.1377 73.2315 20.1377Z" fill="white"/>
    <path fill-rule="evenodd" clip-rule="evenodd" d="M39.8337 10.114V10.8271C38.7977 10.1812 37.5748 9.80603 36.2637 9.80603C32.5323 9.80603 29.5065 12.8319 29.5065 16.5647C29.5065 20.2977 32.5323 23.3235 36.2637 23.3235C37.5748 23.3235 38.7977 22.9497 39.8337 22.3024V23.0155H43.1226V10.114H39.8337ZM36.2517 20.1377C34.2724 20.1377 32.6669 18.5321 32.6669 16.5528C32.6669 14.5735 34.2724 12.9679 36.2517 12.9679C38.2311 12.9679 39.8023 14.5406 39.8337 16.493V16.6111C39.8023 18.5635 38.2117 20.1362 36.2517 20.1362V20.1377Z" fill="white"/>
    <path d="M23.8028 17.8898L21.7935 14.6741C21.7935 14.6741 21.7861 14.6607 21.7816 14.6547L21.6231 14.402C21.3242 13.9222 20.8069 13.6352 20.2418 13.6336L17.0052 13.6232L16.7795 13.985L12.912 20.1741L12.6982 20.5164L14.3187 23.1057C14.6178 23.5872 15.135 23.8741 15.7046 23.8741H20.2403C20.7995 23.8741 21.3287 23.5796 21.6247 23.1072L21.7846 22.8516C21.7846 22.8516 21.7906 22.8441 21.7921 22.8412L23.8043 19.621C24.1347 19.0948 24.1347 18.4145 23.8043 17.8898H23.8028ZM23.1899 19.2368L21.1776 22.4569C21.1687 22.4719 21.1582 22.4838 21.1492 22.4958C21.079 22.575 20.9878 22.5855 20.9475 22.5855C20.9011 22.5855 20.7875 22.572 20.7142 22.4554L18.702 19.2353C18.6795 19.1994 18.6601 19.162 18.6422 19.1216C18.6243 19.0828 18.6108 19.044 18.5988 19.0036C18.554 18.8421 18.554 18.6687 18.5988 18.5072C18.6213 18.428 18.6556 18.3488 18.7005 18.277L20.7097 15.0599C20.7097 15.0599 20.7127 15.0554 20.7142 15.0524C20.762 14.9806 20.8219 14.9477 20.8742 14.9372C20.8951 14.9313 20.9131 14.9298 20.928 14.9268C20.9355 14.9268 20.9429 14.9268 20.9504 14.9268C20.9967 14.9268 21.1119 14.9417 21.1836 15.0584L23.1928 18.274C23.3767 18.567 23.3767 18.9438 23.1928 19.2368H23.1899Z" fill="white"/>
    <path d="M17.8574 10.1086C18.1862 9.58088 18.1862 8.90216 17.8574 8.37744L15.8481 5.16178L15.6806 4.89119C15.3802 4.41131 14.863 4.12427 14.2948 4.12427H9.75912C9.19256 4.12427 8.67528 4.41131 8.37328 4.89268L0.251154 17.8914C0.0882032 18.1515 0 18.452 0 18.757C0 19.0619 0.086708 19.3624 0.249659 19.621L2.42782 23.1088C2.7283 23.5902 3.24557 23.8757 3.81215 23.8757H8.34784C8.91744 23.8757 9.43472 23.5887 9.73368 23.1073L9.89968 22.8442C9.89968 22.8442 9.89968 22.8442 9.89968 22.8412L9.90264 22.8352L11.5217 20.2459L16.3205 12.5663L17.8543 10.1101L17.8574 10.1086ZM17.3834 9.24304C17.3834 9.40896 17.3371 9.5764 17.2429 9.7244L9.28672 22.4585C9.21496 22.5736 9.09984 22.587 9.05352 22.587C9.00712 22.587 8.89352 22.5736 8.82032 22.4585L6.80956 19.2369C6.62717 18.9454 6.62717 18.5701 6.80956 18.2756L14.7658 5.54448C14.8375 5.42788 14.9526 5.41443 14.999 5.41443C15.0453 5.41443 15.1604 5.42788 15.2337 5.54598L17.2429 8.76168C17.3371 8.90968 17.3834 9.07704 17.3834 9.24304Z" fill="white"/>
  </g>
  <defs>
    <clipPath id="clip0_4_19504">
      <rect width="80" height="32" fill="white"/>
    </clipPath>
  </defs>
</svg>