<svg xmlns="http://www.w3.org/2000/svg" width="34" height="34" viewBox="0 0 34 34" fill="none">
  <g clip-path="url(#clip0_6_19111)">
    <path d="M17 34.6001C26.3888 34.6001 34 26.9889 34 17.6001C34 8.21126 26.3888 0.600098 17 0.600098C7.61116 0.600098 0 8.21126 0 17.6001C0 26.9889 7.61116 34.6001 17 34.6001Z" fill="white"/>
    <mask id="mask0_6_19111" style="mask-type:luminance" maskUnits="userSpaceOnUse" x="3" y="4" width="28" height="27">
      <path d="M30.0335 4.56641H3.9668V30.6331H30.0335V4.56641Z" fill="white"/>
    </mask>
    <g mask="url(#mask0_6_19111)">
      <path d="M26.1938 9.94619L18.2162 6.13345C17.37 5.72476 16.3723 5.78006 15.5762 6.28035L7.34429 11.4642C6.5482 11.9645 6.06619 12.8415 6.07028 13.7812L6.10061 22.5968C6.10478 23.6388 6.70239 24.5884 7.64074 25.043L15.6183 28.8558C16.4645 29.2645 17.4622 29.2092 18.2583 28.7089L26.4902 23.525C27.2863 23.0247 27.7683 22.1478 27.7642 21.2081L27.7488 16.4685L27.7356 12.3925C27.7315 11.3504 27.1338 10.4009 26.1972 9.94789L26.1938 9.94619Z" fill="white" stroke="#31373D" stroke-miterlimit="10"/>
      <g opacity="0.8">
        <mask id="path-4-inside-1_6_19111" fill="white">
          <path d="M14.9378 25.7562L9.24959 23.0367C8.66805 22.7549 8.28935 22.1537 8.28733 21.5058L8.26562 15.1406"/>
        </mask>
        <path d="M14.9378 25.7562L9.24959 23.0367C8.66805 22.7549 8.28935 22.1537 8.28733 21.5058L8.26562 15.1406" fill="white"/>
        <path d="M9.24959 23.0367L8.81351 23.9366L8.81826 23.9389L9.24959 23.0367ZM8.28733 21.5058L9.28733 21.5027L9.28733 21.5024L8.28733 21.5058ZM15.3691 24.854L9.68093 22.1345L8.81826 23.9389L14.5065 26.6584L15.3691 24.854ZM9.68567 22.1368C9.44789 22.0216 9.28816 21.7684 9.28733 21.5027L7.28734 21.5089C7.29055 22.5391 7.88822 23.4883 8.81352 23.9366L9.68567 22.1368ZM9.28733 21.5024L9.26562 15.1372L7.26563 15.144L7.28734 21.5092L9.28733 21.5024Z" fill="#31373D" mask="url(#path-4-inside-1_6_19111)"/>
        <path d="M14.9378 25.7562L9.24959 23.0367C8.66805 22.7549 8.28935 22.1537 8.28733 21.5058L8.26562 15.1406" stroke="#31373D" stroke-width="0.8" stroke-miterlimit="10"/>
        <mask id="path-7-inside-2_6_19111" fill="white">
          <path d="M9.41034 14.29L15.1708 16.7635C15.8519 17.0629 16.2941 17.6896 16.2964 18.3652L16.3195 24.2237"/>
        </mask>
        <path d="M9.41034 14.29L15.1708 16.7635C15.8519 17.0629 16.2941 17.6896 16.2964 18.3652L16.3195 24.2237" fill="white"/>
        <path d="M15.1708 16.7635L15.5731 15.848L15.5653 15.8447L15.1708 16.7635ZM16.2964 18.3652L15.2965 18.3687L15.2965 18.3691L16.2964 18.3652ZM9.01578 15.2089L14.7762 17.6824L15.5653 15.8447L9.8049 13.3712L9.01578 15.2089ZM14.7684 17.679C15.1368 17.8409 15.2957 18.1397 15.2965 18.3687L17.2964 18.3617C17.2925 17.2395 16.5669 16.2848 15.5731 15.848L14.7684 17.679ZM15.2965 18.3691L15.3195 24.2277L17.3195 24.2198L17.2964 18.3612L15.2965 18.3691Z" fill="#31373D" mask="url(#path-7-inside-2_6_19111)"/>
        <path d="M10.4512 14.7192L15.3438 17.0859C15.9223 17.3723 16.2979 17.972 16.2999 18.6184L16.3195 24.224" stroke="#31373D" stroke-width="0.8" stroke-miterlimit="10"/>
        <mask id="path-10-inside-3_6_19111" fill="white">
          <path d="M8.27819 17.7715L8.26813 14.6091C8.26792 14.3254 8.46469 14.1702 8.54991 14.1159C8.63513 14.0631 8.86138 13.9514 9.11726 14.0752L10.7378 14.8584"/>
        </mask>
        <path d="M8.27819 17.7715L8.26813 14.6091C8.26792 14.3254 8.46469 14.1702 8.54991 14.1159C8.63513 14.0631 8.86138 13.9514 9.11726 14.0752L10.7378 14.8584" fill="white"/>
        <path d="M8.26813 14.6091L7.26812 14.6099L7.26813 14.6123L8.26813 14.6091ZM8.54991 14.1159L8.02319 13.2658L8.01255 13.2726L8.54991 14.1159ZM9.11726 14.0752L8.68173 14.9754L8.68212 14.9756L9.11726 14.0752ZM9.27818 17.7684L9.26812 14.606L7.26813 14.6123L7.27819 17.7747L9.27818 17.7684ZM9.26813 14.6084C9.26821 14.715 9.22674 14.8092 9.18157 14.8704C9.14457 14.9205 9.108 14.9461 9.08727 14.9593L8.01255 13.2726C7.83195 13.3877 7.26753 13.8054 7.26813 14.6099L9.26813 14.6084ZM9.07659 14.966C9.05719 14.978 9.019 14.9997 8.95818 15.0114C8.88379 15.0257 8.77962 15.0228 8.68173 14.9754L9.55278 13.1751C8.82432 12.8226 8.19966 13.1566 8.02323 13.2659L9.07659 14.966ZM8.68212 14.9756L10.3027 15.7588L11.173 13.9581L9.55239 13.1749L8.68212 14.9756Z" fill="#31373D" mask="url(#path-10-inside-3_6_19111)"/>
        <path d="M8.27819 17.7715L8.26813 14.6091C8.26792 14.3254 8.46469 14.1702 8.54991 14.1159C8.63513 14.0631 8.86138 13.9514 9.11726 14.0752L10.7378 14.8584" stroke="#31373D" stroke-width="0.8" stroke-miterlimit="10"/>
        <mask id="path-13-inside-4_6_19111" fill="white">
          <path d="M16.3106 22.0645L16.3224 25.5292C16.3226 25.8113 16.1383 25.9587 16.0593 26.0084C15.9802 26.0581 15.7679 26.1621 15.5136 26.0383L11.9313 24.3294"/>
        </mask>
        <path d="M16.3106 22.0645L16.3224 25.5292C16.3226 25.8113 16.1383 25.9587 16.0593 26.0084C15.9802 26.0581 15.7679 26.1621 15.5136 26.0383L11.9313 24.3294" fill="white"/>
        <path d="M16.3224 25.5292L17.3224 25.5284L17.3224 25.5257L16.3224 25.5292ZM16.0593 26.0084L16.5913 26.8551L16.5918 26.8548L16.0593 26.0084ZM15.5136 26.0383L15.9513 25.1391L15.9441 25.1357L15.5136 26.0383ZM15.3106 22.0679L15.3224 25.5326L17.3224 25.5257L17.3106 22.061L15.3106 22.0679ZM15.3224 25.5299C15.3223 25.437 15.357 25.3444 15.4067 25.2748C15.4481 25.2168 15.493 25.1832 15.5268 25.1619L16.5918 26.8548C16.7973 26.7255 17.3229 26.3121 17.3224 25.5284L15.3224 25.5299ZM15.5273 25.1616C15.5569 25.143 15.6062 25.1163 15.6782 25.1036C15.7646 25.0883 15.8658 25.0975 15.9513 25.1391L15.0759 26.9374C15.7881 27.2841 16.3924 26.9801 16.5913 26.8551L15.5273 25.1616ZM15.9441 25.1357L12.3618 23.4268L11.5007 25.2319L15.083 26.9408L15.9441 25.1357Z" fill="#31373D" mask="url(#path-13-inside-4_6_19111)"/>
        <path d="M16.3106 22.0645L16.3224 25.5292C16.3226 25.8113 16.1383 25.9587 16.0593 26.0084C15.9802 26.0581 15.7679 26.1621 15.5136 26.0383L11.9313 24.3294" stroke="#31373D" stroke-width="0.8" stroke-miterlimit="10"/>
      </g>
    </g>
  </g>
  <defs>
    <clipPath id="clip0_6_19111">
      <rect width="34" height="34" fill="white"/>
    </clipPath>
  </defs>
</svg>