<svg xmlns="http://www.w3.org/2000/svg" width="14" height="14" viewBox="0 0 14 14" fill="none">
  <g opacity="0.9">
    <path d="M12.3464 0.307007H0.984372C0.440105 0.307007 0 0.736692 0 1.26795V12.6768C0 13.2081 0.440105 13.6403 0.984372 13.6403H12.3464C12.8907 13.6403 13.3333 13.2081 13.3333 12.6794V1.26795C13.3333 0.736692 12.8907 0.307007 12.3464 0.307007ZM3.95573 11.6689H1.97656V5.3044H3.95573V11.6689ZM2.96614 4.43721C2.33073 4.43721 1.8177 3.92419 1.8177 3.29138C1.8177 2.65856 2.33073 2.14555 2.96614 2.14555C3.59896 2.14555 4.11198 2.65856 4.11198 3.29138C4.11198 3.92158 3.59896 4.43721 2.96614 4.43721ZM11.362 11.6689H9.38543V8.57521C9.38543 7.83824 9.37238 6.88773 8.35677 6.88773C7.32812 6.88773 7.17188 7.69241 7.17188 8.52311V11.6689H5.19791V5.3044H7.09375V6.17418H7.11979C7.38281 5.67419 8.02865 5.14554 8.98962 5.14554C10.9922 5.14554 11.362 6.46324 11.362 8.17678V11.6689Z" fill="white"/>
  </g>
</svg>