<svg xmlns="http://www.w3.org/2000/svg" width="14" height="14" viewBox="0 0 14 14" fill="none">
  <g opacity="0.9">
    <path fill-rule="evenodd" clip-rule="evenodd" d="M6.99998 0.333374C3.31958 0.333374 0.333313 3.31963 0.333313 7.00003C0.333313 10.6804 3.31958 13.6667 6.99998 13.6667C10.6731 13.6667 13.6666 10.6804 13.6666 7.00003C13.6666 3.31963 10.6731 0.333374 6.99998 0.333374ZM11.4034 3.4064C12.1988 4.37531 12.6761 5.61174 12.6906 6.94941C12.5026 6.91327 10.6226 6.53003 8.7281 6.76866C8.68473 6.67466 8.64856 6.57341 8.60519 6.4722C8.48948 6.19745 8.35935 5.91545 8.22919 5.64791C10.3261 4.7947 11.2806 3.56547 11.4034 3.4064ZM6.99998 1.31674C8.4461 1.31674 9.76931 1.85905 10.7744 2.74842C10.6731 2.89303 9.81265 4.0427 7.7881 4.80191C6.85535 3.08824 5.8214 1.6855 5.66231 1.46858C6.08889 1.36735 6.53723 1.31674 6.99998 1.31674ZM4.57773 1.85181C4.72956 2.05427 5.74186 3.46424 6.68907 5.14174C4.02818 5.85036 1.67822 5.83591 1.42514 5.83591C1.7939 4.07161 2.98696 2.6038 4.57773 1.85181ZM1.30222 7.00727C1.30222 6.94941 1.30222 6.89157 1.30222 6.83374C1.54807 6.84094 4.31018 6.87711 7.15182 6.0239C7.31815 6.34203 7.46998 6.66741 7.61461 6.99278C7.54228 7.01448 7.46273 7.0362 7.39044 7.05786C4.45479 8.00507 2.89297 10.5937 2.76282 10.8105C1.85898 9.80548 1.30222 8.46786 1.30222 7.00727ZM6.99998 12.6978C5.68398 12.6978 4.46925 12.2495 3.50757 11.4975C3.6088 11.2879 4.76568 9.06081 7.9761 7.94002C7.99056 7.93278 7.99782 7.93278 8.01228 7.92557C8.81486 10.0007 9.14027 11.7433 9.22703 12.2422C8.5401 12.5387 7.7881 12.6978 6.99998 12.6978ZM10.1743 11.7217C10.1164 11.3745 9.81265 9.71148 9.06798 7.66523C10.854 7.38324 12.4157 7.84602 12.611 7.91111C12.3651 9.49462 11.4541 10.8612 10.1743 11.7217Z" fill="white"/>
  </g>
</svg>