<svg xmlns="http://www.w3.org/2000/svg" width="16" height="12" viewBox="0 0 16 12" fill="none">
  <g opacity="0.9">
    <path d="M5.28067 12C10.8139 12 13.8412 7.38278 13.8412 3.37993C13.8412 3.25014 13.8383 3.11745 13.8326 2.98765C14.4215 2.55879 14.9297 2.02761 15.3334 1.41904C14.7849 1.66476 14.2026 1.82523 13.6063 1.89499C14.2341 1.51603 14.7043 0.920708 14.9294 0.219371C14.3388 0.571851 13.6928 0.820487 13.0193 0.954636C12.5656 0.46909 11.9655 0.147595 11.312 0.0398622C10.6586 -0.0678608 9.98804 0.0441745 9.4042 0.35865C8.82031 0.673125 8.35557 1.17253 8.08181 1.77966C7.80806 2.38678 7.74056 3.06779 7.88974 3.71743C6.69377 3.657 5.52376 3.34415 4.45557 2.79918C3.38737 2.25421 2.44483 1.48928 1.68906 0.553981C1.30493 1.22087 1.18739 2.01001 1.36031 2.76103C1.53324 3.51205 1.98367 4.16857 2.62004 4.5972C2.14229 4.58193 1.675 4.45241 1.2568 4.21933V4.25683C1.25637 4.95667 1.49663 5.63508 1.93676 6.17671C2.3769 6.71834 2.98972 7.08978 3.67107 7.22788C3.22849 7.34981 2.76401 7.36758 2.31354 7.2798C2.5058 7.88169 2.87987 8.40805 3.38355 8.78554C3.88722 9.16303 4.49537 9.37284 5.12311 9.38554C4.0574 10.2284 2.74091 10.6857 1.3857 10.6835C1.14536 10.6831 0.905265 10.6684 0.666687 10.6391C2.04344 11.5285 3.64496 12.0009 5.28067 12Z" fill="white"/>
  </g>
</svg>