<svg width="22" height="18" viewBox="0 0 22 18" fill="none" xmlns="http://www.w3.org/2000/svg">
<g id="Group" opacity="0.9">
<path id="Vector" d="M6.92098 18.0001C15.2208 18.0001 19.7617 11.0742 19.7617 5.06996C19.7617 4.87527 19.7575 4.67623 19.7488 4.48153C20.6322 3.83825 21.3946 3.04148 22 2.12863C21.1773 2.49719 20.3038 2.73791 19.4094 2.84255C20.3512 2.27411 21.0563 1.38112 21.3941 0.329117C20.5081 0.857837 19.5392 1.23079 18.529 1.43202C17.8483 0.703696 16.9482 0.221454 15.968 0.0598543C14.9879 -0.10173 13.982 0.0663227 13.1063 0.538035C12.2304 1.00975 11.5333 1.75886 11.1227 2.66954C10.7121 3.58023 10.6108 4.60175 10.8346 5.5762C9.04062 5.48555 7.28561 5.01629 5.68332 4.19883C4.08103 3.38138 2.66722 2.23399 1.53356 0.831032C0.957367 1.83136 0.781059 3.01507 1.04044 4.1416C1.29983 5.26813 1.97547 6.25292 2.93003 6.89586C2.21341 6.87296 1.51247 6.67867 0.885163 6.32905V6.38531C0.884517 7.43507 1.24492 8.45268 1.90511 9.26512C2.56532 10.0776 3.48455 10.6347 4.50657 10.8419C3.84271 11.0248 3.14599 11.0514 2.47028 10.9198C2.75867 11.8226 3.31977 12.6121 4.07529 13.1784C4.8308 13.7446 5.74303 14.0593 6.68464 14.0784C5.08606 15.3427 3.11133 16.0286 1.07851 16.0253C0.718007 16.0247 0.357867 16.0026 0 15.9587C2.06513 17.2928 4.46741 18.0014 6.92098 18.0001Z" fill="#31373D"/>
</g>
</svg>
