<svg xmlns="http://www.w3.org/2000/svg" width="24" height="21" viewBox="0 0 24 21" fill="none">
  <path d="M23.15 10.5161L18.1319 1.47226C17.95 1.14153 17.6854 0.865792 17.365 0.673065C17.0447 0.480338 16.68 0.377498 16.308 0.375H7.49209C7.12009 0.377498 6.75537 0.480338 6.43501 0.673065C6.11465 0.865792 5.85007 1.14153 5.66817 1.47226L5.03511 2.6161H16.2932L15.0418 4.85788H3.7851L2.53376 7.11473H13.7905L12.5398 9.35582H1.28309L0.650024 10.5161L1.2683 11.6134H12.525L13.7616 13.8545H2.50285L3.75352 16.0955H15.0116L16.2623 18.3373H5.00554L5.66817 19.5284C5.85016 19.859 6.11478 20.1346 6.43513 20.3272C6.75549 20.5198 7.12016 20.6226 7.49209 20.625H16.308C16.6799 20.6226 17.0446 20.5198 17.3649 20.3272C17.6853 20.1346 17.9499 19.859 18.1319 19.5284L23.15 10.5161Z" fill="#EF54AC"/>
</svg>