<svg xmlns="http://www.w3.org/2000/svg" width="13" height="21" viewBox="0 0 13 21" fill="none">
  <path d="M1.97639 20.625H3.69193C3.84863 20.625 3.95193 20.5024 3.95193 20.3188V20.1955L2.54804 15.7161C2.52369 15.6597 2.4864 15.6125 2.44043 15.58C2.39446 15.5474 2.34166 15.5307 2.28804 15.5318H0.572501C0.416384 15.5935 0.3125 15.7168 0.3125 15.8387V15.962L1.71639 20.4414C1.76862 20.564 1.87251 20.625 1.97639 20.625ZM9.04749 0.743493L10.452 5.22295C10.5036 5.34623 10.6075 5.40719 10.7114 5.40719H12.4275C12.583 5.40719 12.6875 5.2839 12.6875 5.10034V4.97705L11.283 0.497603C11.212 0.420978 11.1198 0.377408 11.0236 0.375H9.30749C9.15137 0.375 9.04749 0.498288 9.04749 0.681849V0.743493ZM5.14747 20.625H6.86359C7.02029 20.625 7.1236 20.5024 7.1236 20.3188V20.1955L4.16028 10.6846C4.13601 10.6281 4.09875 10.5808 4.05278 10.5481C4.0068 10.5154 3.95395 10.4986 3.90028 10.4997H2.18416C2.02804 10.4997 1.92416 10.6229 1.92416 10.8072V10.9298L4.88805 20.4414C4.94028 20.564 5.04359 20.625 5.14747 20.625ZM8.52748 20.625H10.2436C10.3997 20.625 10.5036 20.5024 10.5036 20.3188V20.2572L4.36805 0.559247C4.36805 0.435959 4.26359 0.375 4.16028 0.375H2.39193C2.28746 0.375 2.18358 0.498288 2.18358 0.681849V0.805137L8.31914 20.4414C8.37137 20.564 8.42418 20.625 8.52748 20.625ZM8.83972 10.5003H10.5553C10.712 10.5003 10.8153 10.3771 10.8153 10.1935V10.0702L7.85195 0.559932C7.82759 0.503553 7.7903 0.456386 7.74433 0.423809C7.69836 0.391232 7.64556 0.374557 7.59195 0.375685H5.87582C5.71971 0.375685 5.61582 0.498973 5.61582 0.682534V0.805822L8.63137 10.3168C8.6836 10.4401 8.73583 10.501 8.83972 10.501V10.5003Z" fill="#244AE5"/>
</svg>