<svg xmlns="http://www.w3.org/2000/svg" width="17" height="13" viewBox="0 0 17 13" fill="none">
  <path d="M1.2138 12.6874H3.89825V6.31434L0.0625 3.50244V11.5627C0.0625 12.1842 0.577929 12.6874 1.2138 12.6874Z" fill="#4285F4"/>
  <path d="M13.1024 12.6874H15.7868C15.938 12.6875 16.0876 12.6585 16.2273 12.602C16.3669 12.5455 16.4938 12.4626 16.6007 12.3582C16.7076 12.2537 16.7923 12.1297 16.8501 11.9932C16.9079 11.8567 16.9376 11.7104 16.9376 11.5627V3.50244L13.1018 6.31434L13.1024 12.6874Z" fill="#34A853"/>
  <path d="M13.1023 1.44003V6.31399L16.9375 3.50209V2.00353C16.9375 0.613196 15.3141 -0.18072 14.176 0.653366L13.1023 1.44114V1.44003Z" fill="#FBBC04"/>
  <path d="M3.89819 6.3139V1.43994L8.50052 4.81367L13.1028 1.43994V6.31335L8.50052 9.68707L3.89819 6.31335V6.3139Z" fill="#EA4335"/>
  <path d="M0.0630708 2.00283V3.50195L3.89882 6.31385V1.43989L2.82401 0.653228C1.68584 -0.181415 0.0630708 0.6125 0.0630708 2.00283Z" fill="#C5221F"/>
</svg>