<svg xmlns="http://www.w3.org/2000/svg" width="19" height="19" viewBox="0 0 19 19" fill="none">
  <path d="M6.64194 0.5H18.3821C18.558 0.5 18.7 0.6427 18.7 0.819018V12.5582C18.7 12.7345 18.558 12.8765 18.3821 12.8765H6.3233V0.819018C6.3233 0.643386 6.46605 0.5 6.64194 0.5Z" fill="#CAF23A"/>
  <path d="M1.01797 12.8765H6.32383V18.1818C6.32383 18.3581 6.18176 18.5001 6.0052 18.5001H1.01797C0.976483 18.5004 0.935348 18.4924 0.896915 18.4765C0.858482 18.4607 0.823504 18.4373 0.793979 18.4077C0.764454 18.3782 0.740959 18.343 0.724836 18.3042C0.708713 18.2655 0.700278 18.2238 0.700012 18.1818V13.1955C0.700012 13.0192 0.842079 12.8765 1.01797 12.8765Z" fill="#4FC26B"/>
</svg>