<svg xmlns="http://www.w3.org/2000/svg" width="20" height="17" viewBox="0 0 20 17" fill="none">
  <path d="M19.8596 8.92318C19.8602 8.85346 19.8417 8.78478 19.8061 8.72379C19.7705 8.6628 19.7189 8.61157 19.6562 8.57504H19.6538L19.646 8.57047L13.0187 4.84989C12.8719 4.75613 12.699 4.70605 12.522 4.70605C12.345 4.70605 12.1721 4.75613 12.0253 4.84989L5.39862 8.57104L5.3908 8.57504C5.32767 8.61235 5.27576 8.66449 5.24011 8.72641C5.20446 8.78834 5.18627 8.85794 5.1873 8.92849C5.18833 8.99903 5.20854 9.06813 5.24598 9.1291C5.28343 9.19006 5.33683 9.24082 5.40102 9.27646L12.0277 12.997C12.1745 13.0908 12.3474 13.1409 12.5244 13.1409C12.7014 13.1409 12.8743 13.0908 13.0211 12.997L19.6478 9.27589C19.7128 9.23995 19.7667 9.18835 19.8039 9.1263C19.8411 9.06426 19.8603 8.99455 19.8596 8.92318Z" fill="#0A2767"/>
  <path d="M6.17209 6.43697H10.5207V10.2181H6.17209V6.43697ZM18.9712 2.59368V0.864374C18.9763 0.656628 18.8943 0.455442 18.7431 0.305065C18.5919 0.154689 18.3839 0.0674367 18.1649 0.0625H6.87971C6.66068 0.0674367 6.4527 0.154689 6.30149 0.305065C6.15028 0.455442 6.06824 0.656628 6.07341 0.864374V2.59368L12.7446 4.28076L18.9712 2.59368Z" fill="#0364B8"/>
  <path d="M6.07556 2.59326H10.5234V6.38975H6.07556V2.59326Z" fill="#0078D4"/>
  <path d="M14.9696 2.59326H10.5229V6.38975L14.9696 10.1862H18.9728V6.38975L14.9702 2.59326H14.9696Z" fill="#28A8EA"/>
  <path d="M10.5229 6.39111H14.9708V10.1876H10.5229V6.39111Z" fill="#0078D4"/>
  <path d="M10.5229 10.1865H14.9708V13.983H10.5229V10.1865Z" fill="#0364B8"/>
  <path d="M6.17474 10.2173H10.5233V13.6542H6.17474V10.2179V10.2173Z" fill="#14447D"/>
  <path d="M14.9702 10.1865H18.9728V13.983H14.9702V10.1865Z" fill="#0078D4"/>
  <path d="M19.6579 9.25282L19.6495 9.25681L13.0228 12.7919C12.8878 12.8715 12.7334 12.9167 12.5745 12.9232L12.2123 12.7228C12.1822 12.708 12.1521 12.692 12.1232 12.6743L5.40811 9.03879H5.4045L5.18488 8.92236V16.0787C5.18849 16.5559 5.59885 16.9405 6.10249 16.9377H18.9581C18.9659 16.9377 18.9726 16.9343 18.9804 16.9343C19.0869 16.928 19.1916 16.9069 19.2921 16.8726C19.3354 16.8555 19.3769 16.8344 19.4172 16.811C19.5522 16.7363 19.6643 16.6294 19.7424 16.501C19.8205 16.3725 19.8619 16.227 19.8625 16.0787V8.92236C19.8613 9.05934 19.7837 9.18547 19.6579 9.25282Z" fill="url(#paint0_linear_25_761)"/>
  <path opacity="0.5" d="M19.5056 8.89231V9.3312L12.5763 13.8559L5.40266 9.04013L5.40253 9.03842L5.40166 9.03693L5.40021 9.03591L5.39845 9.03556L4.74017 8.66002V8.34384L5.01094 8.33984L5.58498 8.65203L5.59822 8.65603L5.64756 8.68571C5.64756 8.68571 12.3898 12.3344 12.4078 12.3429L12.6654 12.4862C12.6887 12.4771 12.7124 12.4688 12.7364 12.4611C12.7502 12.4525 19.4304 8.88831 19.4304 8.88831L19.5056 8.89231Z" fill="#0A2767"/>
  <path d="M19.6579 9.25282L19.6495 9.25738L13.0228 12.7925C12.8742 12.8817 12.7019 12.929 12.5261 12.929C12.3502 12.929 12.178 12.8817 12.0294 12.7925L5.40209 9.25738L5.39427 9.25282C5.33143 9.2205 5.27887 9.1728 5.24204 9.11469C5.20522 9.05657 5.18548 8.99016 5.18488 8.92236V16.0787C5.18788 16.5559 5.59886 16.9405 6.10189 16.9377H18.9443C19.064 16.9385 19.1827 16.9169 19.2937 16.8742C19.4046 16.8315 19.5056 16.7684 19.5908 16.6886C19.676 16.6089 19.7439 16.5139 19.7904 16.4093C19.8369 16.3046 19.8612 16.1923 19.8619 16.0787V8.92236C19.8619 9.05934 19.7837 9.18547 19.6579 9.25282Z" fill="#1490DF"/>
  <path opacity="0.1" d="M13.1175 12.7397L13.0182 12.7928C12.8865 12.8725 12.7355 12.919 12.5796 12.9281L15.1008 15.756L19.4993 16.7611C19.6197 16.6755 19.7159 16.5613 19.7779 16.4312L13.1169 12.7397H13.1175Z" fill="black"/>
  <path opacity="0.05" d="M13.5664 12.498L13.0182 12.7903C12.8865 12.8699 12.7355 12.9164 12.5796 12.9255L13.7608 16.0149L19.5005 16.758C19.7268 16.597 19.8597 16.3442 19.8597 16.0759V15.9835L13.5664 12.498Z" fill="black"/>
  <path d="M6.11452 16.9377H18.9431C19.1404 16.9383 19.333 16.8795 19.4924 16.7687L12.2117 12.7234C12.1816 12.7091 12.1515 12.6932 12.1232 12.6749L5.40751 9.03936H5.4039L5.18488 8.92236V16.0542C5.18488 16.5416 5.60006 16.9371 6.11452 16.9377Z" fill="#28A8EA"/>
  <path opacity="0.1" d="M11.4114 4.21035V13.209C11.411 13.3633 11.3622 13.514 11.2711 13.6417C11.18 13.7695 11.0508 13.8687 10.9 13.9264C10.8043 13.9652 10.7014 13.9852 10.5973 13.9852H5.18488V3.85935H6.07421V3.43701H10.5973C10.8132 3.43777 11.02 3.51952 11.1725 3.66442C11.3251 3.80932 11.4109 4.00558 11.4114 4.21035Z" fill="black"/>
  <path opacity="0.2" d="M10.9667 4.63372V13.6313C10.968 13.7334 10.9451 13.8344 10.9 13.9269C10.8395 14.0681 10.7362 14.189 10.6031 14.2744C10.4701 14.3597 10.3133 14.4056 10.1526 14.4063H5.18488V3.86038H10.1526C10.282 3.85924 10.409 3.88949 10.5221 3.94885C10.7947 4.07897 10.9667 4.34379 10.9667 4.63372Z" fill="black"/>
  <path opacity="0.2" d="M10.9667 4.63372V12.7877C10.9658 12.9925 10.8798 13.1887 10.7274 13.3338C10.5751 13.4788 10.3685 13.5611 10.1526 13.5628H5.18488V3.86038H10.1526C10.282 3.85924 10.409 3.88949 10.5221 3.94885C10.7947 4.07897 10.9667 4.34379 10.9667 4.63372Z" fill="black"/>
  <path opacity="0.2" d="M10.5221 4.63369V12.7877C10.5218 12.9927 10.436 13.1892 10.2835 13.3344C10.1309 13.4796 9.92406 13.5617 9.70796 13.5627H5.18488V3.86035H9.70796C10.158 3.86035 10.5221 4.20678 10.5221 4.63312V4.63369Z" fill="black"/>
  <path d="M1.55341 3.86035H9.70664C10.1573 3.86035 10.522 4.20621 10.522 4.63369V12.3671C10.522 12.7951 10.1573 13.141 9.70725 13.141H1.55281C1.33657 13.141 1.12919 13.0595 0.97629 12.9145C0.823388 12.7694 0.737488 12.5727 0.737488 12.3676V4.63369C0.737488 4.20621 1.10333 3.86035 1.55341 3.86035Z" fill="url(#paint1_linear_25_761)"/>
  <path d="M3.28522 7.10207C3.48614 6.69592 3.81052 6.35605 4.21668 6.12612C4.66637 5.882 5.17837 5.76034 5.69629 5.77455C6.17637 5.76451 6.65012 5.87981 7.06579 6.10786C7.45631 6.3293 7.771 6.65291 7.97137 7.04043C8.1898 7.46734 8.29871 7.93648 8.28908 8.41132C8.29971 8.90704 8.18781 9.39823 7.96235 9.84556C7.75694 10.2468 7.43207 10.5821 7.02788 10.8101C6.59638 11.0451 6.10527 11.1635 5.60784 11.1525C5.1176 11.164 4.63346 11.0475 4.20825 10.8158C3.81395 10.5945 3.49517 10.2701 3.29003 9.88152C3.0703 9.46073 2.96011 8.99611 2.96872 8.52661C2.95972 8.03521 3.06792 7.54823 3.28522 7.10207ZM4.27805 9.3924C4.38516 9.64923 4.56687 9.87182 4.80154 10.0345C5.04102 10.1931 5.32804 10.2753 5.61987 10.2685C5.93101 10.2801 6.23769 10.1954 6.49356 10.0271C6.72559 9.86479 6.90236 9.64156 7.00201 9.38499C7.11364 9.09828 7.16871 8.79455 7.16447 8.48894C7.16798 8.18062 7.11631 7.87397 7.01164 7.58205C6.91915 7.31852 6.74795 7.08614 6.51883 6.91316C6.26939 6.73707 5.96364 6.64779 5.65297 6.66033C5.35452 6.65295 5.06129 6.73547 4.81538 6.89604C4.57624 7.05952 4.39112 7.2842 4.28166 7.54381C4.0389 8.13848 4.03761 8.79689 4.27805 9.3924Z" fill="white"/>
  <path d="M14.9702 2.59326H18.9728V6.38975H14.9702V2.59326Z" fill="#50D9FF"/>
  <defs>
    <linearGradient id="paint0_linear_25_761" x1="12.5234" y1="8.92236" x2="12.5234" y2="16.9377" gradientUnits="userSpaceOnUse">
      <stop stop-color="#35B8F1"/>
      <stop offset="1" stop-color="#28A8EA"/>
    </linearGradient>
    <linearGradient id="paint1_linear_25_761" x1="2.43733" y1="3.25595" x2="8.32927" y2="14.0153" gradientUnits="userSpaceOnUse">
      <stop stop-color="#1784D9"/>
      <stop offset="0.5" stop-color="#107AD5"/>
      <stop offset="1" stop-color="#0A63C9"/>
    </linearGradient>
  </defs>
</svg>