<svg xmlns="http://www.w3.org/2000/svg" width="19" height="19" viewBox="0 0 19 19" fill="none">
  <path d="M3.19094 14.5086C2.92197 14.5178 2.66712 14.6292 2.48014 14.8195C2.29315 15.0097 2.18863 15.2639 2.18863 15.5284C2.18863 15.7929 2.29315 16.0471 2.48014 16.2374C2.66712 16.4276 2.92197 16.5391 3.19094 16.5482C3.45991 16.5391 3.71476 16.4276 3.90175 16.2374C4.08874 16.0471 4.19326 15.7929 4.19326 15.5284C4.19326 15.2639 4.08874 15.0097 3.90175 14.8195C3.71476 14.6292 3.45991 14.5178 3.19094 14.5086ZM14.6343 2.18464C14.4289 2.1844 14.228 2.24403 14.0571 2.35599C13.8861 2.46796 13.7528 2.62723 13.6739 2.81366C13.5951 3.0001 13.5742 3.20534 13.614 3.40342C13.6538 3.60151 13.7524 3.78356 13.8975 3.92654C14.0425 4.06953 14.2274 4.16703 14.4289 4.20673C14.6303 4.24643 14.8391 4.22655 15.0291 4.14959C15.219 4.07262 15.3814 3.94204 15.4958 3.77435C15.6103 3.60666 15.6715 3.40939 15.6719 3.20748V3.20383C15.6719 2.64127 15.2067 2.18464 14.6343 2.18464ZM7.11877 6.30461V7.55637C7.11877 7.74267 7.27239 7.89732 7.46565 7.89732H17.747C17.839 7.89732 17.9272 7.8614 17.9923 7.79746C18.0573 7.73352 18.0939 7.6468 18.0939 7.55637V6.30461C18.0932 6.21438 18.0565 6.12803 17.9916 6.06423C17.9266 6.00043 17.8388 5.9643 17.747 5.96367H7.46565C7.3739 5.96446 7.28614 6.00064 7.22126 6.0644C7.15638 6.12817 7.11957 6.21443 7.11877 6.30461ZM11.0751 12.0745V10.8264C11.0751 10.736 11.0385 10.6493 10.9735 10.5853C10.9084 10.5214 10.8202 10.4855 10.7282 10.4855H0.446858C0.354859 10.4855 0.266628 10.5214 0.201575 10.5853C0.136522 10.6493 0.0999756 10.736 0.0999756 10.8264V12.0745C0.0999756 12.2608 0.253595 12.4155 0.446858 12.4155H10.7282C10.9215 12.4155 11.0751 12.2645 11.0751 12.0745ZM18.0152 10.3941C17.9875 10.3591 17.9529 10.3299 17.9136 10.3081C17.8742 10.2864 17.8309 10.2726 17.786 10.2675L16.5236 10.1409C16.4341 10.131 16.3442 10.1561 16.2733 10.2108C16.2024 10.2655 16.1561 10.3453 16.1445 10.4331C15.6149 14.3077 11.9838 17.0292 8.04172 16.505C7.49414 16.4313 6.95771 16.298 6.44235 16.108C6.40104 16.0917 6.35686 16.0836 6.31235 16.0842C6.26785 16.0847 6.22389 16.0939 6.18302 16.1113C6.14214 16.1286 6.10516 16.1537 6.07418 16.1851C6.04321 16.2165 6.01887 16.2536 6.00255 16.2943L5.51939 17.4438C5.50167 17.486 5.49271 17.5313 5.49306 17.577C5.4934 17.6227 5.50303 17.6679 5.52138 17.7098C5.53973 17.7518 5.56643 17.7898 5.59992 17.8214C5.63341 17.8531 5.673 17.8779 5.71637 17.8943C10.4346 19.6837 15.74 17.3738 17.5612 12.7357C17.8251 12.0645 18.0053 11.3643 18.0976 10.6505C18.1032 10.6044 18.0988 10.5577 18.0846 10.5135C18.0704 10.4693 18.0467 10.4286 18.0152 10.3941ZM0.175546 7.52471C0.150782 7.48652 0.134457 7.44365 0.127627 7.39887C0.120798 7.35408 0.123617 7.30839 0.135903 7.26474C0.639902 5.3287 1.78555 3.61278 3.392 2.38782C4.99845 1.16286 6.97421 0.49864 9.00742 0.500002C10.0307 0.500002 11.0503 0.665605 12.016 0.999245C12.195 1.05587 12.2947 1.24582 12.2378 1.42117C12.234 1.42847 12.2309 1.43943 12.2272 1.44552L11.7726 2.61326C11.7423 2.69625 11.6798 2.76404 11.5987 2.80172C11.5176 2.83939 11.4246 2.84388 11.3402 2.81417C10.588 2.56174 9.79852 2.43337 9.0037 2.43426C7.3589 2.42673 5.76227 2.97967 4.48556 3.99896C3.28864 4.952 2.43164 6.25496 2.0388 7.71893C2.01963 7.79134 1.97659 7.85547 1.91641 7.9013C1.85623 7.94712 1.78229 7.97206 1.70616 7.9722C1.68006 7.97567 1.6536 7.97567 1.6275 7.9722L0.38987 7.69397C0.298767 7.66712 0.221751 7.60669 0.174927 7.52532L0.175546 7.52471Z" fill="#25C365"/>
</svg>